<?xml version="1.0" encoding="utf-8"?>
<!-- Generator: Adobe Illustrator 25.0.0, SVG Export Plug-In . SVG Version: 6.00 Build 0)  -->
<svg version="1.1" xmlns="http://www.w3.org/2000/svg" xmlns:xlink="http://www.w3.org/1999/xlink" x="0px" y="0px"
	 viewBox="0 0 928.9 1092.7" style="enable-background:new 0 0 928.9 1092.7;" xml:space="preserve">
<style type="text/css">
	.st0{fill:#EEBA03;}
	.st1{fill:#CC8405;}
	.st2{opacity:0.31;fill:#1E1E1E;}
	.st3{fill:#1E1E1E;}
	.st4{opacity:0.31;fill:url(#SVGID_1_);}
	.st5{opacity:0.31;fill:url(#SVGID_2_);}
	.st6{opacity:0.48;fill:url(#SVGID_3_);}
	.st7{fill:url(#SVGID_4_);}
	.st8{fill:url(#SVGID_5_);}
	.st9{opacity:0.43;fill:url(#SVGID_6_);}
	.st10{opacity:0.57;fill:url(#SVGID_7_);}
	.st11{fill:#EFEFEF;}
	.st12{opacity:0.23;fill:#1E1E1E;}
	.st13{fill:#FEFEFC;}
	.st14{fill:url(#SVGID_8_);}
	.st15{fill:url(#SVGID_9_);}
	.st16{fill:url(#SVGID_10_);}
	.st17{opacity:0.32;fill:#A86307;}
	.st18{opacity:0.47;fill:#FFE183;}
	.st19{opacity:0.5;fill:url(#SVGID_11_);}
	.st20{opacity:0.38;fill:url(#SVGID_12_);}
	.st21{fill:#995C0D;}
</style>
<g id="Layer_1">
	<g id="Layer_4_1_">
		<polygon class="st0" points="491.8,161 100.4,366.2 100.4,792 482.8,1022 856.5,801.6 847.5,373.2 		"/>
		<g>
			<g>
				<path class="st1" d="M467.8,1069.4L54.6,830.9v-477l413.2-238.6L881,353.8v477L467.8,1069.4z M121.6,792.2L467.8,992
					l346.1-199.8V392.5l-346-199.8L121.6,392.5V792.2z"/>
			</g>
		</g>
	</g>
	<ellipse class="st2" cx="476.5" cy="1026.8" rx="421.2" ry="53.4"/>
</g>
<g id="Layer_6">
	<path class="st3" d="M799.2,809.4c0-3.7-21.4,105.3-31.7,144.3c-7.6,28.9-46,73.2-85.4,86.4c-13.8,4.6-27.7,5.5-40.5,0.5
		c-49.3-19.1-190.7-40.5-245.9-27.2c-55.2,13.2-119.6,11.4-166.4-35.4c-1.7-1.7-3.4-3.5-5-5.5c-41.8-49.8-43-160-65-213.2
		c-22.8-55.2-2.2-96.5,23.6-133.3c25.8-36.8,27.2-54.5,35.3-91.3c8.1-36.8,30.9-71.4,61.1-92.8c15.5-11,27.9-26,36.3-43.1
		c8-16.2,12.3-34.2,12.3-52.2c0-12.5-0.2-28.9-0.6-47.6c-0.9-37-2.8-83.1-6.8-125.2c-5.9-63.3,17.7-98.7,59.7-133.3
		C422.4,6,478.4,9.7,478.4,9.7c7.2,0.4,14.3,1.2,21.1,2.4c56.2,9.7,98.5,45.5,126.7,106.6c24.5,53,14,127.5,24.7,190.8
		c2.5,14.4,6,28.3,11.4,41.2C691,419.9,730.7,451.5,772.7,503c42,51.5,50.8,116.3,55.2,184.1C832.3,754.9,799.2,813,799.2,809.4z"/>
</g>
<g id="Layer_8">
	<linearGradient id="SVGID_1_" gradientUnits="userSpaceOnUse" x1="409.041" y1="642.0305" x2="248.5194" y2="812.8608">
		<stop  offset="0" style="stop-color:#FFFFFF"/>
		<stop  offset="1" style="stop-color:#FEFEFE;stop-opacity:0"/>
	</linearGradient>
	<path class="st4" d="M331.6,491.3c0,0-71.4,44.2-99.4,123s-45.7,110.5-12.5,143.6s92,60.4,111.9,87.6s26.2,51.6,10.1,67.7
		s42.9-11,52.5-14c9.6-2.9,28-37.6,28-47.1s-1.1-49-9.6-57.4c-8.5-8.5-4.4-18.4-14.7-46.4c-10.3-28-7.4-57.4-11-75.8
		c-3.7-18.4,1.5-46.4,1.5-56S331.6,491.3,331.6,491.3z"/>
	<linearGradient id="SVGID_2_" gradientUnits="userSpaceOnUse" x1="370.1711" y1="685.3539" x2="168.4145" y2="750.1516">
		<stop  offset="0" style="stop-color:#FFFFFF"/>
		<stop  offset="1" style="stop-color:#FEFEFE;stop-opacity:0"/>
	</linearGradient>
	<path class="st5" d="M236.6,617.2c0,0-18.8,63.6-25,87.6c-6.3,24,1.5,42,19.1,56.4s64.8,42,75.8,53c11,11-30-24.5-44.9-39.4
		c-14.9-14.9-40.1-26.9-40.1-53C221.5,695.6,241.1,625.6,236.6,617.2z"/>
	<linearGradient id="SVGID_3_" gradientUnits="userSpaceOnUse" x1="206.4813" y1="79.3626" x2="393.1429" y2="196.4403">
		<stop  offset="0" style="stop-color:#FFFFFF"/>
		<stop  offset="1" style="stop-color:#FEFEFE;stop-opacity:0"/>
	</linearGradient>
	<path class="st6" d="M499.5,12.1c-25.6,10.1-55.1,27.6-80.9,58c-61.9,72.9-51.4,81.3-51.4,156.1c0,64.6-12,139.4-51.5,172.7
		c8-16.2,12.3-34.2,12.3-52.2c0-37.1-1.5-109.4-7.4-172.8c-5.9-63.3,17.7-98.7,59.7-133.3C422.4,6,478.4,9.7,478.4,9.7
		C485.6,10.1,492.6,10.9,499.5,12.1z"/>
	<linearGradient id="SVGID_4_" gradientUnits="userSpaceOnUse" x1="-1.2885" y1="516.3188" x2="239.4939" y2="620.1424">
		<stop  offset="0" style="stop-color:#FFFFFF"/>
		<stop  offset="1" style="stop-color:#FEFEFE;stop-opacity:0"/>
	</linearGradient>
	<path class="st7" d="M185.5,706.1c-12.2,58.3,37.6,131.6,60.8,204.6c7.3,23.1-3.6,44-21.9,61.9c-41.8-49.8-43-160-65-213.2
		c-22.8-55.2-2.2-96.5,23.6-133.3c25.8-36.8,27.2-54.5,35.3-91.3c8.1-36.8,30.9-71.4,61.1-92.8c15.5-11,27.9-26,36.3-43.1
		c8-16.2,12.3-34.2,12.3-52.2c0-12.5-0.2-28.9-0.6-47.6c24.8,41.2,8.3,100.1-15.4,141.9s-60.2,80.9-72.4,122.8
		C227.4,605.8,197.6,647.7,185.5,706.1z"/>
	<linearGradient id="SVGID_5_" gradientUnits="userSpaceOnUse" x1="1106.3633" y1="429.5743" x2="748.5031" y2="629.8582">
		<stop  offset="0" style="stop-color:#FFFFFF"/>
		<stop  offset="1" style="stop-color:#FEFEFE;stop-opacity:0"/>
	</linearGradient>
	<path class="st8" d="M799.2,809.4c0-3.7-21.4,105.3-31.7,144.3c-7.6,28.9-46,73.2-85.4,86.4c1.9-10.4,6.7-23.4,14.9-39.3
		c83.4-162,86-254.8,49.2-365c-36.8-110.2-75.1-212.3-94.2-276.8c-5.6-18.9-4.9-35.6-1.1-49.6c2.5,14.4,6,28.3,11.4,41.2
		C691,419.9,730.7,451.5,772.7,503c42,51.5,50.8,116.3,55.2,184.1C832.3,754.9,799.2,813,799.2,809.4z"/>
	<linearGradient id="SVGID_6_" gradientUnits="userSpaceOnUse" x1="988.8678" y1="635.5676" x2="623.2761" y2="706.256">
		<stop  offset="0" style="stop-color:#FFFFFF"/>
		<stop  offset="1" style="stop-color:#FEFEFE;stop-opacity:0"/>
	</linearGradient>
	<path class="st9" d="M692.4,610.2c0,0,0.3,2.4,0.7,6.9c1.5,17.5,4.6,66.9-0.7,126.8c-6.6,75.1,24.3,34.2,33.1-17.7
		C734.4,674.2,707.9,560.5,692.4,610.2z"/>
	<linearGradient id="SVGID_7_" gradientUnits="userSpaceOnUse" x1="730.8928" y1="332.6165" x2="593.9339" y2="426.4995">
		<stop  offset="0" style="stop-color:#FFFFFF"/>
		<stop  offset="1" style="stop-color:#FEFEFE;stop-opacity:0"/>
	</linearGradient>
	<path class="st10" d="M598.5,366.1c0,0-4.4,23.2,16.6,65.2c21,42,30.9,37.6,22.1,0C628.4,393.7,598.5,334.1,598.5,366.1z"/>
</g>
<g id="Layer_7">
	<path class="st11" d="M675,737.7c-3.4,48.6-16.2,89.8-36.3,116.8c-20.1,27-56.9,62.3-102.1,88.9c-45.2,26.5-82,31.4-140.4,20.6
		c-58.4-10.8-133-68.7-81.5-61.4c51.6,7.4,54-24.1,40.3-53.5c-13.7-29.5-34.9-29.5-48.6-43.2c-13.7-13.7-61.1-51.3-69.7-59.9
		c-8.6-8.6-3.4-47.6,5.4-92.8c2.1-10.9,5.2-22.3,8.9-33.7c4-12.4,8.7-24.6,13.5-35.7c9.1-21,18.7-38,25.2-44.5
		c13-13,12.8-17.2,12.8-42.2c0-25,14.2-46.1,33.9-70.7c5.8-7.3,10.1-14,13.2-20.3c7.4-15,8.4-27.9,8.4-42.1c0-2.3,0.1-4.8,0.2-7.3
		c0.8-19.3,4.2-42.6,4.2-42.6h12.1c0,0,171,1.3,175.9,12.2c1.3,2.9,3,6.7,5.2,11.5c1.5,3.3,3.3,7.2,5.3,11.5
		c6.1,12.9,14.4,30.3,25.8,52.6c0.2,0.4,0.4,0.8,0.6,1.2c6.2,12.3,11.6,26.2,16.1,39.7c10.2,30.5,15.8,58.3,15.8,58.3
		s23.3,22.6,39.1,56.5c2.8,6,5.4,12.4,7.5,19.1C679.9,620.9,678.4,689.1,675,737.7z"/>
	<path class="st12" d="M587.2,403.1c-37.6,50.7-116,76.7-173.1,49.1c-30.6-14.7-51.4-32.1-64.6-46.1c7.4-15,8.4-27.9,8.4-42.1
		c0-20.1,4.3-49.9,4.3-49.9h12.1c0,0,171,1.3,175.9,12.2c4.9,10.9,15.7,35.3,36.3,75.5C586.8,402.3,587,402.7,587.2,403.1z"/>
	<path class="st12" d="M560.8,349.3c-8.2,9.7-16.5,21-22,32.2c-14.5,29.5-61.9,81.4-105.5,49.3c-29.6-21.7-53.7-80.8-66.1-116.7h7.3
		c0,0,171,1.3,175.9,12.2C552.5,331.3,555.9,338.9,560.8,349.3z"/>
	<path class="st12" d="M555.5,337.9c-42.3,25.6-66.8,73.2-117,65c-32-5.2-60.7-27.1-80.4-46.1c0.8-19.3,4.2-42.6,4.2-42.6h12.1
		c0,0,171,1.3,175.9,12.2C551.6,329.3,553.3,333.1,555.5,337.9z"/>
	<path class="st12" d="M675,737.7c-3.4,48.6-16.2,89.8-36.3,116.8c-20.1,27-56.9,62.3-102.1,88.9c-45.2,26.5-82,31.4-140.4,20.6
		c-58.4-10.8-133-68.7-81.5-61.4c51.6,7.4,54-24.1,40.3-53.5c-13.7-29.5-34.9-29.5-48.6-43.2c-13.7-13.7-61.1-51.3-69.7-59.9
		c-8.6-8.6-3.4-47.6,5.4-92.8c4.4-22.7,13.2-48.1,22.4-69.4c-2.5,44.7-0.9,95.8,14.9,123.5c32,56.3,18.9,51.9,70.2,91.7
		c51.3,39.8,29.9,100.5,147.8,83.9c117.8-16.6,155.4-116.8,128.9-241.2c-16.3-76.7-27.8-148.6-22.9-199
		c10.2,30.5,15.8,58.3,15.8,58.3s32.4,31.4,46.6,75.6C679.9,620.9,678.4,689.1,675,737.7z"/>
	<path class="st12" d="M675,737.7c-3.4,48.6-16.2,89.8-36.3,116.8c-20.1,27-56.9,62.3-102.1,88.9c-45.2,26.5-82,31.4-140.4,20.6
		c-58.4-10.8-133-68.7-81.5-61.4c51.6,7.4,54-24.1,40.3-53.5c-13.7-29.5-34.9-29.5-48.6-43.2c-13.7-13.7-61.1-51.3-69.7-59.9
		c-8.6-8.6-3.4-47.6,5.4-92.8c2.1-10.9,5.2-22.3,8.9-33.7c-3.8,28.9-5.7,63.1,1.1,86.5c14,48.1,22.1,55.4,47.9,81.2
		c25.8,25.8,45.3,28,67.2,61.9c21.9,33.9,27.8,45.6,8.6,64.8c-19.1,19.2,22.2,45.7,113.1,25.8c90.9-19.9,132.8-74.4,157.9-145.1
		c21.8-61.6,24.6-163.1,11.3-237.1c2.8,6,5.4,12.4,7.5,19.1C679.9,620.9,678.4,689.1,675,737.7z"/>
</g>
<g id="Layer_5">
	
		<ellipse transform="matrix(4.187368e-02 -0.9991 0.9991 4.187368e-02 264.2159 727.8094)" class="st13" cx="511.6" cy="226.1" rx="63.9" ry="50.8"/>
	
		<ellipse transform="matrix(0.9863 -0.1652 0.1652 0.9863 -33.5034 66.0553)" class="st13" cx="380.3" cy="234.4" rx="37.4" ry="63.9"/>
	<ellipse class="st3" cx="511.7" cy="236.8" rx="27.1" ry="34"/>
	<linearGradient id="SVGID_8_" gradientUnits="userSpaceOnUse" x1="498.2415" y1="244.2763" x2="531.3767" y2="212.3683">
		<stop  offset="0" style="stop-color:#FFFFFF"/>
		<stop  offset="1" style="stop-color:#FEFEFE;stop-opacity:0"/>
	</linearGradient>
	<path class="st14" d="M534.4,230.4c-1.4,2.1-8.3-0.2-15.3-5c-7-4.8-11.5-10.5-10.1-12.5s8.3,0.2,15.3,5
		C531.4,222.7,535.9,228.3,534.4,230.4z"/>
	
		<ellipse transform="matrix(0.992 -0.1264 0.1264 0.992 -26.7419 49.8294)" class="st3" cx="379.4" cy="235.7" rx="22.2" ry="32.8"/>
	
		<linearGradient id="SVGID_9_" gradientUnits="userSpaceOnUse" x1="369.7792" y1="238.4627" x2="396.3683" y2="212.8584" gradientTransform="matrix(0.9933 -0.1159 0.1159 0.9933 -25.7043 46.417)">
		<stop  offset="0" style="stop-color:#FFFFFF"/>
		<stop  offset="1" style="stop-color:#FEFEFE;stop-opacity:0"/>
	</linearGradient>
	<path class="st15" d="M397.2,227.5c-0.9,2.1-6.8,0.6-13-3.4s-10.6-9-9.6-11.1c0.9-2.1,6.8-0.6,13,3.4S398.1,225.3,397.2,227.5z"/>
	<path class="st3" d="M400.1,268.2c0-1.1,8.8-23.2,23.4-38.4c1.2-1.3,2.5-2.5,3.8-3.6c16.9-14.9,34.2-13.7,49.3,31.7
		c0.3,1,0.6,1.9,0.8,2.8C488,301.9,400.1,272.5,400.1,268.2z"/>
	<linearGradient id="SVGID_10_" gradientUnits="userSpaceOnUse" x1="477.0899" y1="200.2974" x2="455.7361" y2="236.378">
		<stop  offset="0" style="stop-color:#FFFFFF"/>
		<stop  offset="1" style="stop-color:#FEFEFE;stop-opacity:0"/>
	</linearGradient>
	<path class="st16" d="M477.5,260.6c-1.4,1-3.6,1.4-6.9,0.5c-10.7-34.7-32-35.6-47-31.3c1.2-1.3,2.5-2.5,3.8-3.6
		c16.9-14.9,34.2-13.7,49.3,31.7C477,258.8,477.3,259.7,477.5,260.6z"/>
</g>
<g id="Layer_9">
	<path class="st0" d="M361.1,1022.9c-13.2,33.9-58.2,57.4-110.4,31.7c-34.5-17-90.9-30.2-137-40.8c-23.8-5.5-44.8-10.2-58.8-14.5
		c-25-7.6-27.8-24.9-23.2-43.1c3-11.9,9.1-24.1,14.4-34.2c1.8-3.4,3-6.9,3.8-10.4c5.3-22.7-7-47.5-3.8-83.9
		c3.7-42,29.4-36.8,61.1-36.8c26.6,0,24.1,3.1,34.6-18v0c0.9-1.8,1.9-3.8,3-6c1.4-2.7,3-5.7,4.8-9c9.7-18,21.3-24.1,30.8-25.7
		c10.3-1.7,18.1,2.1,18.1,2.1c48.9,20.6,101.6,141.4,128.9,177.5C354.4,947.8,374.3,989,361.1,1022.9z"/>
	<path class="st0" d="M20.9,934.5l-0.1,2.1C20.5,935.3,20.5,934.5,20.9,934.5z"/>
	<path class="st17" d="M361.1,1022.9c-13.2,33.9-58.2,57.4-110.4,31.7c-52.3-25.8-154.6-42.7-195.9-55.2
		c-25-7.6-27.8-24.9-23.2-43.1c11.9,15.3,34.7,34.3,74,40.9c70,11.8,170.1,2.2,178.2-52.3c8.1-54.5-55.2-139.2-82.1-175.2
		c-18.2-24.4-42.9-12.8-57-2.7c1.4-2.7,3-5.7,4.8-9c20.3-37.6,48.9-23.6,48.9-23.6c48.9,20.6,101.6,141.4,128.9,177.5
		C354.4,947.8,374.3,989,361.1,1022.9z"/>
	<path class="st17" d="M359.5,1024.4c-13.7,33.7-58.9,56.7-110.8,30.3c-34.3-17.4-90.5-31.3-136.5-42.5c26.7,1.6,61,5.3,99.3,13.3
		c89.6,18.8,122.7,30.4,127-29.3c4.3-59.8-39.2-96.2-73.8-159.3c-28.9-52.7-46-96.9-82.3-105.5c10.3-1.6,18.1,2.3,18.1,2.3
		C249,755,300.3,876.4,327,912.8C353.8,949.2,373.2,990.7,359.5,1024.4z"/>
	<path class="st17" d="M141.7,772.9c0,45.3-58.2,17.9-72.2,40.1c-13.9,22.2-10.3,38.3-10.3,74.4c0,11.6-4,19.3-9.4,24.2
		c5.3-22.7-7-47.5-3.8-83.9c3.7-42,29.4-36.8,61.1-36.8C133.6,791,131.2,794.1,141.7,772.9z"/>
	<path class="st18" d="M244.6,785c0,0,64.2,101.7,85.6,140.7s31.4,66.8,28.7,86.2c8.5-8.5,16.2-47.3-31.8-99
		C287.4,835.1,244.6,785,244.6,785z"/>
	<path class="st18" d="M164.2,772.9c-1,3-16.3,31.7,12.1,60s33.2-4.8,25.5-30C193.9,777.7,169.1,758.5,164.2,772.9z"/>
	<path class="st18" d="M133.5,842.3c0,0-16.2-24.5-49.5-21.7c-22.6,1.9-29.1,38.2,9.4,56.6C132.1,895.5,153.4,872.2,133.5,842.3z"/>
	<path class="st18" d="M120.3,927.9c0,0-39.2-6.5-54.4,8.7c-15.2,15.2-6.7,31.9,33.1,35.9S144.5,929.1,120.3,927.9z"/>
	<path class="st0" d="M618.4,1058.9c24.8,26.6,75.3,31.9,114.3-11.3C758.5,1019,806,986,845,959.1c20.1-13.8,37.9-26,49.3-35.2
		c20.4-16.3,16.6-33.4,5.7-48.6c-7.2-9.9-17.4-19-26-26.5c-2.9-2.5-5.3-5.3-7.4-8.3c-13.3-19.2-11-46.7-27.4-79.3
		c-18.9-37.6-41-23.3-70.4-11.6c-24.7,9.8-21.3,11.8-38.8-4l0,0c-1.5-1.4-3.2-2.9-5.1-4.5c-2.3-2-4.9-4.2-7.8-6.6
		c-15.7-13.1-28.7-14.5-38.1-12.5c-10.2,2.2-16,8.6-16,8.6c-37.8,37.2-42.3,168.9-54.2,212.5C596.8,986.7,593.5,1032.3,618.4,1058.9
		z"/>
	<path class="st0" d="M901.9,851.2l0.9,1.9C902.6,851.8,902.2,851.1,901.9,851.2z"/>
	<path class="st17" d="M618.4,1058.9c24.8,26.6,75.3,31.9,114.3-11.3c39.1-43.3,127.9-96.8,161.6-123.6
		c20.4-16.3,16.6-33.4,5.7-48.6c-5.4,18.6-19.6,44.6-53.7,65.3c-60.7,36.8-157.3,64.9-184.9,17.2c-27.6-47.7-0.1-149.7,11.6-193.2
		c7.9-29.3,35.1-27.7,52-23.6c-2.3-2-4.9-4.2-7.8-6.6c-32.8-27.4-54.1-3.9-54.1-3.9c-37.8,37.2-42.3,168.9-54.2,212.5
		C596.8,986.7,593.5,1032.3,618.4,1058.9z"/>
	<path class="st17" d="M620.4,1059.8c25.2,26.3,75.7,31,114.2-12.8c25.4-28.9,72.5-62.5,111.2-89.9c-24.3,11.3-54.8,27.4-87.4,49
		c-76.3,50.6-102.8,73.6-128.8,19.6c-26.1-53.9,0.9-103.9,9.8-175.2c7.4-59.6,7-107.1,37.5-128.4c-10.2,2.4-15.9,8.8-15.9,8.8
		c-37.3,37.7-40.1,169.4-51.6,213.2C597.9,987.8,595.2,1033.5,620.4,1059.8z"/>
	<path class="st17" d="M730,745.6c16.7,42.1,60.8-4.8,81.9,10.6c21.1,15.5,23.7,31.8,37,65.3c4.3,10.8,10.8,16.4,17.7,19
		c-13.3-19.2-11-46.7-27.4-79.3c-18.9-37.6-41-23.3-70.4-11.6C744.1,759.4,747.6,761.4,730,745.6z"/>
	<path class="st18" d="M638.8,794.8c0,0-22.2,118.2-27.6,162.3c-5.4,44.2-4.5,73.6,5.1,90.7c-11-4.7-32.5-37.9-7-103.8
		C617.5,857.2,638.8,794.8,638.8,794.8z"/>
	<path class="st18" d="M709.1,753.9c2.1,2.4,26.8,23.4,10.9,60.2c-15.9,36.8-32.7,7.8-34.7-18.5
		C683.2,769.3,699.1,742.3,709.1,753.9z"/>
	<path class="st18" d="M763.1,807.1c0,0,6-28.7,37.9-38.5c21.7-6.6,41.1,24.7,12.1,56.1C784.2,856,755.7,842.2,763.1,807.1z"/>
	<path class="st18" d="M807.1,881.8c0,0,34.1-20.5,53.8-12c19.7,8.5,18,27.2-17.5,45.6C807.9,933.7,785.1,891.8,807.1,881.8z"/>
</g>
<g id="Layer_10">
	<path class="st3" d="M804.6,778.9c-4.4,14-18.7,28.5-37,37.8c-16.3,8.3-35.7,12.6-54.1,9c-39.1-7.6-36.7-46.5-21-81.9
		c1.7-3.7,3.8-6.9,6.3-9.6c16.6-18,48.3-14.5,48.3-14.5C827.8,727.4,812.9,752.4,804.6,778.9z"/>
	<linearGradient id="SVGID_11_" gradientUnits="userSpaceOnUse" x1="888.5383" y1="661.4517" x2="752.511" y2="761.6306">
		<stop  offset="0" style="stop-color:#FFFFFF"/>
		<stop  offset="1" style="stop-color:#FEFEFE;stop-opacity:0"/>
	</linearGradient>
	<path class="st19" d="M804.6,778.9c-4.4,14-18.7,28.5-37,37.8c10.6-24.5,21.2-52.8-13.3-74.6c-20.1-12.7-40.4-11.9-55.6-7.9
		c16.6-18,48.3-14.5,48.3-14.5C827.8,727.4,812.9,752.4,804.6,778.9z"/>
	<linearGradient id="SVGID_12_" gradientUnits="userSpaceOnUse" x1="881.7532" y1="689.1198" x2="751.176" y2="763.7354">
		<stop  offset="0" style="stop-color:#FFFFFF"/>
		<stop  offset="1" style="stop-color:#FEFEFE;stop-opacity:0"/>
	</linearGradient>
	<path class="st20" d="M746.6,727.9c0,0,33.5-2,33.5,29c0,30.9,17.2,27,21.1,6.6C805.1,743.1,778.4,719,746.6,727.9z"/>
</g>
<g id="Layer_3">
	<path class="st0" d="M557.7,328.8c-5.6,16-18,9.9-35.5,21.9c-0.8,0.5-1.6,1.1-2.3,1.7c-18.7,14.2-54.5,35.3-76.1,39.3
		c-21.6,3.9-58.4-14.7-64.8-30.9c-0.3-0.6-0.5-1.2-0.8-1.8c-2.3-5-5.4-8.8-8.9-12.2c-7-6.7-15.7-11.3-22.7-18.4
		c-0.2-0.2-0.4-0.4-0.6-0.6c-0.8-0.9-1.5-1.8-2.1-2.7c-1-1.6-1.6-3.2-2-4.9c-1.7-9,6-18.6,14.9-27.6c11.8-11.8,18.2-20.1,36.8-33.9
		c6.7-4.9,14.1-8.4,20.9-10.8c12.2-4.4,22.3-5.4,22.3-5.4c32.4,0,50.6,12.3,66.8,23.1c5.5,3.6,12.8,6.8,20.4,9.6
		c15,5.6,31,9.9,35.5,14.4C566.5,296.4,563.6,312.1,557.7,328.8z"/>
	<path class="st21" d="M350.2,326.7c0,0,14.5,2.6,27.6,12.3c13.1,9.8,40.1,14.7,63.9,9.9s50.1-16.4,62-26.7
		c12-10.3,26.9-23.2,31.1-23.2s5,0.7-2.6,6.1c-7.5,5.3-29.6,25.4-48.2,34.2c-18.6,8.8-31.7,12.5-46.8,14.7
		c-15.1,2.2-40.7,0.9-53.6-7.2c-12.9-8.1-21-14.9-26.3-16.2C352.1,329.5,346,326.7,350.2,326.7z"/>
	<path class="st21" d="M462.1,255.8c0,0,0.6-2.2-7.1-0.9c-7.7,1.3-9.8,2.6,0,5.3C464.9,263,468.4,258.6,462.1,255.8z"/>
	<path class="st21" d="M404.3,258.8c0,0-0.7-1.5-5.3,3.1s3.1,3.3,5.3,1.1S405.7,258.8,404.3,258.8z"/>
</g>
<g id="Layer_4">
	<path class="st17" d="M557.7,328.8c-5.9,16.7-19.2,9.3-37.8,23.6s-54.5,35.3-76.1,39.3c-21.6,3.9-58.4-14.7-64.8-30.9
		c-6.4-16.2-21.4-21.4-32.4-32.4c-0.2-0.2-0.4-0.4-0.6-0.6c1.5-1.4,3.6-1.9,6.7-0.4c11.3,5.3,31.8,19,44.9,22.5
		c13,3.5,33.8,5.3,51.7,0c17.9-5.3,42.4-12.1,56.2-25.8c13.7-13.7,23.8-17,31.2-22.1c7.4-5.1,8.9-10.8,5.9-13.8c-2-2-10-6-18.5-13
		c15,5.6,31,9.9,35.5,14.4C566.5,296.4,563.6,312.1,557.7,328.8z"/>
	<path class="st17" d="M369.3,346.7c-7-6.7-15.7-11.3-22.7-18.4c-0.2-0.2-0.4-0.4-0.6-0.6c-0.8-0.9-1.5-1.8-2.1-2.7
		c2-2.5,5.9-4.6,12.9-1.6C369.9,328.9,375.9,340,369.3,346.7z"/>
	<path class="st17" d="M550.1,322.8c-9.9,11.1-24,19.5-27.9,27.8c-0.8,0.5-1.6,1.1-2.3,1.7c-18.7,14.2-54.5,35.3-76.1,39.3
		c-21.6,3.9-58.4-14.7-64.8-30.9c-0.3-0.6-0.5-1.2-0.8-1.8c9,4.7,26.8,9.7,58.5,4.7c52.5-8.3,50.4-3.1,65.2-21.2
		c14.7-18-4.6-6.1-19.1,1.3s-27.6,11.2-47.1,13.4c-19.5,2.2-46.9-1.5-51.9-10.1c-5-8.6,12.2,10.3,49.1,3.4
		c36.9-6.9,59.8-18.5,70.9-28c11.1-9.5,17.7-33.7,34.3-30.4C554.6,295.2,562.1,309.4,550.1,322.8z"/>
	<path class="st17" d="M563,309.2c-0.9,6-2.9,12.7-5.3,19.6c-5.6,16-18,9.9-35.5,21.9c-0.8,0.5-1.6,1.1-2.3,1.7
		c-18.7,14.2-54.5,35.3-76.1,39.3c-21.6,3.9-58.4-14.7-64.8-30.9c-0.3-0.6-0.5-1.2-0.8-1.8c-2.3-5-5.4-8.8-8.9-12.2
		c-7-6.7-15.7-11.3-22.7-18.4c-0.2-0.2-0.4-0.4-0.6-0.6c-0.8-0.9-1.5-1.8-2.1-2.7c-1-1.6-1.6-3.2-2-4.9c8.8-0.7,18.3,0.9,25,3.7
		c17.7,7.4,42.3,21,57.4,9.8c15.1-11.1,19.9-57.7,1.8-79.1c-3.1-3.7-7.1-5.8-11.7-6.7c12.2-4.4,22.3-5.4,22.3-5.4
		c11.8,0,21.7,1.6,30.4,4.2c15,4.5,26.1,12,36.4,18.8c5.5,3.6,12.8,6.8,20.4,9.6c15,5.6,31,9.9,35.5,14.4
		C563.7,293.5,564.3,300.6,563,309.2z"/>
	<path class="st17" d="M563,309.2c-15.8-4.8-35.1-4.3-43.2,3.9c-11.4,11.4-65.4,40.9-45.6,21.2c19.7-19.7,21.7-37,14.4-59.2
		c-4-11.9-13.3-21.8-21.2-28.4c15,4.5,26.1,12,36.4,18.8c5.5,3.6,12.8,6.8,20.4,9.6c15,5.6,31,9.9,35.5,14.4
		C563.7,293.5,564.3,300.6,563,309.2z"/>
	<path class="st18" d="M423.7,275.1c0,0,13.3,18.5,2.2,38c-11,19.5-32.4,14.6-47.7,4.2c-15.3-10.5-7.6-21.5,9.7-29.6
		C405.3,279.6,418.3,263,423.7,275.1z"/>
	<path class="st18" d="M415.9,287.3c0,0,7,17.7-1.8,21c-8.8,3.3-17.7,1.8-25-2.2C381.7,302,410.8,278.8,415.9,287.3z"/>
	<path class="st18" d="M379.7,339.8c0,0,23.3,15.2,56.5,9.6c33.1-5.6,61.1-22.3,61.1-22.3S436.7,361.2,379.7,339.8z"/>
</g>
</svg>
